<svg xmlns="http://www.w3.org/2000/svg" viewBox="0 0 50 50" xml:space="preserve"><path fill="#F58122" d="M24 51H1.028V1.09h49.818V51H24m4.022-5.02c4.007-2.364 9.213-3.822 11.809-7.254 10.02-13.25 3.625-28.927-12.658-32.5-7.341-1.612-17.536 2.693-21.215 8.958C1.225 23.242 1.884 32 7.133 38.785c5.243 6.778 12.285 7.729 20.89 7.195z"/><path d="M27.579 45.986c-8.161.528-15.203-.423-20.446-7.2C1.884 32 1.225 23.241 5.958 15.183c3.68-6.265 13.874-10.57 21.215-8.959C43.456 9.8 49.851 25.475 39.831 38.726c-2.596 3.432-7.802 4.89-12.252 7.26m-6.444-11.143c.829.046 1.657.132 2.485.13 4.11-.012 6.687-2.34 7.207-6.103.56-4.05.899-8.471-4.193-10.532-4.342-1.758-7.385.165-9.79 3.487-2.888 3.987-1.702 7.984 4.291 13.018z"/><path fill="#F58122" d="M20.76 34.725c-5.618-4.916-6.804-8.913-3.917-12.9 2.406-3.322 5.449-5.245 9.79-3.487 5.093 2.06 4.754 6.482 4.194 10.532-.52 3.763-3.098 6.091-7.207 6.102-.828.003-1.656-.083-2.86-.247z"/></svg>